<?xml version="1.0" standalone="no"?>
<!DOCTYPE svg PUBLIC "-//W3C//DTD SVG 1.1//EN"
"http://www.w3.org/Graphics/SVG/1.1/DTD/svg11.dtd">

<svg width="380" height="134" viewBox="0 0 380 134"
xmlns="http://www.w3.org/2000/svg"
xmlns:link="http://www.w3.org/1999/xlink">

<desc>Generated by Mocodo 1.4.1 on Thu, 31 Jan 2013 14:45:29</desc>

<rect x="0" y="0" width="380" height="134" fill="none" stroke="none" stroke-width="0"/>

<!-- Association ASSOCIER -->
<line x1="65" y1="67" x2="189" y2="67" stroke="#726f83" stroke-width="1"/>
<text x="126" y="83.9" fill="#726f83" font-family="Verdana" font-size="12">1,N</text>
<line x1="314" y1="67" x2="189" y2="67" stroke="#726f83" stroke-width="1"/>
<text x="231" y="83.9" fill="#726f83" font-family="Verdana" font-size="12">1,1</text>
<g id="association-ASSOCIER">
	<path d="M 212 39 a 14 14 90 0 1 14 14 V 67 h -74 V 53 a 14 14 90 0 1 14 -14" fill="#b2bba4" stroke="#b2bba4" stroke-width="0"/>
	<path d="M 226 67 v 14 a 14 14 90 0 1 -14 14 H 166 a 14 14 90 0 1 -14 -14 V 67 H 74" fill="#ccd6ba" stroke="#ccd6ba" stroke-width="0"/>
	<rect x="152" y="39" width="74" height="56" fill="none" rx="14" stroke="#85956b" stroke-width="1.5"/>
	<line x1="152" y1="67" x2="226" y2="67" stroke="#85956b" stroke-width="1"/>
	<text x="159" y="59.3" fill="#27360c" font-family="Trebuchet MS" font-size="14">ASSOCIER</text>
</g>

<!-- Entity PARAMETRES -->
<g id="entity-PARAMETRES">
	<g id="frame-PARAMETRES">
		<rect x="257" y="9" width="114" height="28" fill="#97b8ff" stroke="#97b8ff" stroke-width="0"/>
		<rect x="257" y="37" width="114" height="88" fill="#c0d4ff" stroke="#c0d4ff" stroke-width="0"/>
		<rect x="257" y="9" width="114" height="116" fill="none" stroke="#578dff" stroke-width="1.5"/>
		<line x1="257" y1="37" x2="371" y2="37" stroke="#578dff" stroke-width="1"/>
	</g>
	<text x="272" y="29.3" fill="#131114" font-family="Trebuchet MS" font-size="14">PARAMETRES</text>
	<text x="262" y="57.3" fill="#3e3c42" font-family="Trebuchet MS" font-size="14">id_configuration</text>
	<line x1="262" y1="60.0" x2="366" y2="60.0" stroke="#3e3c42" stroke-width="1"/>
	<text x="262" y="77.3" fill="#3e3c42" font-family="Trebuchet MS" font-size="14">nb_pas</text>
	<text x="262" y="97.3" fill="#3e3c42" font-family="Trebuchet MS" font-size="14">vitesse</text>
	<text x="262" y="117.3" fill="#3e3c42" font-family="Trebuchet MS" font-size="14">taille_grille</text>
</g>

<!-- Entity CONFIGURATION -->
<g id="entity-CONFIGURATION">
	<g id="frame-CONFIGURATION">
		<rect x="9" y="9" width="112" height="28" fill="#97b8ff" stroke="#97b8ff" stroke-width="0"/>
		<rect x="9" y="37" width="112" height="88" fill="#c0d4ff" stroke="#c0d4ff" stroke-width="0"/>
		<rect x="9" y="9" width="112" height="116" fill="none" stroke="#578dff" stroke-width="1.5"/>
		<line x1="9" y1="37" x2="121" y2="37" stroke="#578dff" stroke-width="1"/>
	</g>
	<text x="14" y="29.3" fill="#131114" font-family="Trebuchet MS" font-size="14">CONFIGURATION</text>
	<text x="14" y="57.3" fill="#3e3c42" font-family="Trebuchet MS" font-size="14">cellule</text>
	<line x1="14" y1="60.0" x2="54" y2="60.0" stroke="#3e3c42" stroke-width="1"/>
	<text x="14" y="77.3" fill="#3e3c42" font-family="Trebuchet MS" font-size="14">pos_x</text>
	<text x="14" y="97.3" fill="#3e3c42" font-family="Trebuchet MS" font-size="14">pos_y</text>
	<text x="14" y="117.3" fill="#3e3c42" font-family="Trebuchet MS" font-size="14">etat</text>
</g>
</svg>